<?xml version="1.0" encoding="utf-8"?>
<!-- Svg Vector Icons : http://www.onlinewebfonts.com/icon -->
<!DOCTYPE svg PUBLIC "-//W3C//DTD SVG 1.1//EN" "http://www.w3.org/Graphics/SVG/1.1/DTD/svg11.dtd">
<svg version="1.1" xmlns="http://www.w3.org/2000/svg" xmlns:xlink="http://www.w3.org/1999/xlink" x="0px" y="0px" viewBox="0 0 16 16" enable-background="new 0 0 16 16" xml:space="preserve">
<metadata> Svg Vector Icons : http://www.onlinewebfonts.com/icon </metadata>
<g><path d="M500,10C229.8,10,10,229.8,10,500c0,270.2,219.8,490,490,490s490-219.8,490-490C990,229.8,770.2,10,500,10z M52,520.5h156.1c1.4,56.5,8.4,110.5,20.3,160.5h-139C67.5,631.5,54.6,577.3,52,520.5z M520.5,274.1V53.7c83.7,12.1,155.9,97.6,196.3,220.4H520.5z M728.8,315.1c12.9,50.6,20.6,106,22.2,164.5H520.5V315.1H728.8z M479.5,53.7v220.4H283.2C323.7,151.3,395.8,65.8,479.5,53.7z M479.5,315.1v164.5H249.1c1.5-58.4,9.2-113.9,22.2-164.5H479.5z M208.2,479.5H52c2.6-58.4,16.3-113.9,39.3-164.5h138.2C216.9,366.1,209.6,421.6,208.2,479.5z M249,520.5h230.5V681H269.9C257.7,631.5,250.5,577.3,249,520.5z M479.5,722v225.2c-84.8-12.3-157.8-99.8-197.9-225.2H479.5z M520.5,947.2V722h197.9C678.3,847.3,605.3,934.9,520.5,947.2z M520.5,681V520.5H751c-1.4,56.9-8.6,111-20.9,160.5H520.5z M791.9,520.5H948c-2.6,56.9-15.5,111-37.4,160.5h-139C783.5,631,790.5,577,791.9,520.5z M791.8,479.5c-1.5-58-8.8-113.4-21.3-164.5h138.2c23,50.6,36.6,106.1,39.3,164.5H791.8z M887.4,274.1H759.1c-26.1-83.3-66-152.3-114.7-198.8C747.3,110.3,833.3,181.7,887.4,274.1z M355.6,75.3c-48.7,46.5-88.6,115.6-114.7,198.8H112.6C166.7,181.7,252.7,110.3,355.6,75.3z M110.2,722h129.4c25.8,84.6,65.8,154.9,114.8,202.3C250.5,888.5,163.9,815.9,110.2,722z M645.7,924.3c49-47.4,89-117.7,114.8-202.3h129.4C836.1,815.9,749.5,888.5,645.7,924.3z"/></g>
</svg>