<svg xmlns="http://www.w3.org/2000/svg" width="40" height="30" stroke="none" stroke-linecap="round" stroke-linejoin="round" fill="#0078d7" fill-rule="evenodd"><path d="M31.1346 12.9878h-8.6545l4.3272 2.9268zm-17.5198 3.933c-.1055 0-.2111 0-.3167-.0915l-4.0105-2.7439v4.4817h9.1821V13.994l-4.3272 2.8353c-.2112.0915-.4223.0915-.5277.0915zm13.1926 0c-.1056 0-.3167 0-.3167-.0915l-4.1159-2.7439v4.4817h9.1821V13.994l-4.3272 2.8353c-.2112.0915-.3167.0915-.4223.0915zM30.0792 0H10.0264L0 15l10.0264 15h19.9472L40 15 30.0792 0zm3.4827 21.4025H6.227c-.8443 0-1.4777-.6402-1.4777-1.372v-9.0549c0-.7317.6334-1.3719 1.4777-1.3719h27.3349c.3167 0 .8445 0 4.4329 5.8536l.1055.2745-.1055.2743c-3.5884 5.3964-4.1162 5.3964-4.4329 5.3964zm-15.62-8.4147H9.1821l4.3272 2.9268zM6.227 10.6097c-.2112 0-.4223.183-.4223.3659v9.0548c0 .183.2111.4574.4223.4574h27.1238c.5278-.4574 2.1108-2.6525 3.4829-4.756-1.3721-2.2867-3.0606-4.6648-3.4829-5.1221H6.227zm13.2981 8.4147c0 .2744-.3166.5487-.7388.5487H8.4434c-.3167 0-.4223-.2743-.4223-.5487v-6.6769c0-.2744.1056-.3658.4223-.3658h10.3429c.3166 0 .7388.0914.7388.3658v6.6769zm12.9816 0c0 .2744-.2111.5487-.5278.5487H21.7414c-.3165 0-.5276-.2743-.5276-.5487v-6.6769c0-.2744.2111-.3658.5276-.3658h10.2375c.3167 0 .5278.0914.5278.3658v6.6769z"/></svg>