<svg xmlns="http://www.w3.org/2000/svg" width="40" height="51" stroke="none" stroke-linecap="round" stroke-linejoin="round" fill="#0078d7" fill-rule="evenodd"><path d="M5.3342 5.7483c0-1.7122 4.8987-3.0577 10.9949-3.0577s10.995 1.3455 10.995 3.0577-4.8987 3.0576-10.995 3.0576S5.3342 7.4605 5.3342 5.7483zm9.7975 41.2164V17.3672c0-3.6692 5.1164-5.3814 12.6278-5.3814 1.7418 0 3.3747.1223 4.8988.3669V5.7483C32.6583 2.5683 25.3645 0 16.3291 0S0 2.5683 0 5.7483v38.1588c0 3.1799 7.2937 5.7483 16.3291 5.7483h1.0886c-1.4151-.8561-2.286-1.7123-2.286-2.6907zm13.1114-25.5838c-4.3545 0-7.9469-.9785-7.9469-2.2015s3.5924-2.2015 7.9469-2.2015 7.9468.9784 7.9468 2.2015-3.4835 2.2015-7.9468 2.2015zm6.967 12.3526L20.7316 47.187l5.552-10.3959h-4.8988l14.4785-13.4534-5.5519 10.3958h4.8987zm-6.967-19.4463c-6.4228 0-11.3216 1.8345-11.3216 4.0361v27.396c0 2.3238 4.7899 4.2807 11.3216 4.2807C34.6658 50 40 48.1655 40 45.8417V18.4455c0-2.3238-5.2253-4.1583-11.7569-4.1583z"/></svg>