<svg xmlns="http://www.w3.org/2000/svg" width="41" height="40" stroke="none" stroke-linecap="round" stroke-linejoin="round" fill="#0078d7" fill-rule="evenodd"><path d="M39.7418 18.712l-1.9367-2.1018-8.6214-9.0847c-.3749-.4068-.9371-.4068-1.3745 0-.3748.4068-.4997 1.1525 0 1.5593l9.0588 9.6272c.3749.4067.3749 1.1524 0 1.5593l-9.2461 9.9661c-.3749.4068-.3749 1.1525 0 1.5593s1.062.339 1.3744 0l8.5589-9.2203.0625-.0678 2.1241-2.2373c.3748-.4069.3123-1.1526 0-1.5593zM3.3194 20.2713c-.3748-.4069-.3748-1.1526 0-1.5593l8.8714-9.6272c.4997-.4068.3748-1.1525 0-1.5593-.4374-.4068-.9996-.4068-1.3745 0l-8.6214 9.0847L.2583 18.712c-.3124.4067-.3749 1.1524 0 1.5593l1.9366 2.3729.0625.0678 8.7463 9.0847c.3124.339.9996.4068 1.3745 0s.3748-1.1525 0-1.5593l-9.0588-9.9661zm26.6764-6.7797h-8.3716L29.7459 0H17.5635l-6.5598 20.0678 7.9967.0678L12.7529 40z"/></svg>