<svg xmlns="http://www.w3.org/2000/svg" width="60" height="50" stroke="none" stroke-linecap="round" stroke-linejoin="round" fill="#0078d7" fill-rule="evenodd"><path d="M46.7019 21.6464H33.7202l6.4909 4.878zm-26.2795 6.5548c-.1584 0-.3167 0-.4751-.1524l-6.0158-4.5733v7.4696h13.7731v-7.6219l-6.4908 4.7256c-.3167.1524-.6334.1524-.7914.1524zm19.7886 0c-.1584 0-.475 0-.475-.1524l-6.1739-4.5733v7.4696h13.7731v-7.6219l-6.4908 4.7256c-.3167.1524-.475.1524-.6334.1524zM45.1188 0H15.0396L0 25l15.0396 25h29.9208L60 25 45.1188 0zm5.2241 35.6708H9.3405c-1.2665 0-2.2166-1.067-2.2166-2.2867V18.2926c0-1.2194.9501-2.2864 2.2166-2.2864h41.0024c.475 0 1.2668 0 6.6492 9.756l.1583.4574-.1583.4573c-5.3824 8.9939-6.1742 8.9939-6.6492 8.9939zM26.9128 21.6464H13.7731l6.4909 4.878zM9.3405 17.6829c-.3167 0-.6334.3049-.6334.6098v15.0914c0 .305.3167.7622.6334.7622h40.6857c.7918-.7622 3.1663-4.4207 5.2244-7.9266-2.0581-3.8111-4.591-7.7746-5.2244-8.5368H9.3405zm19.9473 14.0245c0 .4573-.475.9145-1.1084.9145H12.6651c-.4751 0-.6334-.4572-.6334-.9145V20.5793c0-.4573.1583-.6098.6334-.6098h15.5143c.475 0 1.1084.1525 1.1084.6098v11.1281zm19.4723 0c0 .4573-.3167.9145-.7917.9145H32.6121c-.4747 0-.7914-.4572-.7914-.9145V20.5793c0-.4573.3167-.6098.7914-.6098h15.3563c.475 0 .7917.1525.7917.6098v11.1281z"/></svg>