<svg xmlns="http://www.w3.org/2000/svg" width="50" height="51" stroke="none" stroke-linecap="round" stroke-linejoin="round" fill="#006fd4" fill-rule="evenodd"><path d="M25.5405 39.6089c-.1321-.1222-.2643-.1222-.3963-.1222v-.8558-.7335c0-.2445-.2644-.489-.6609-.6113-.3964 0-.6606.2446-.6606.6113v2.3227c0 .1223 0 .1223.1321.1223 0 .1223.1321.2445.2643.3667l2.5106 2.0783c.2644.2445.7931.2445 1.0573 0l.1322-.1223c.2642-.2446.2642-.7335 0-.9779l-2.3787-2.0783zm-6.0788.3667c-.1321 0-.2642.1222-.2642.2445s.1321.2445.2642.2445.2644-.1222.2644-.2445c.1321-.1223 0-.3667-.2644-.2445zm5.1537-4.1565c.1322 0 .2644-.1223.2644-.2446s-.1322-.2444-.2644-.2444-.2643.1223-.2643.2444.1321.2446.2643.2446zm5.1538 4.1566c0 .1221.1321.2444.2643.2444s.2643-.1223.2643-.2444-.1321-.2446-.2643-.2446c-.1322-.1222-.2643.1223-.2643.2446z"/><path d="M24.3511 44.9878c-.1321 0-.2642.1223-.2642.2446s.1321.2444.2642.2444.2644-.1223.2644-.2444-.1322-.2446-.2644-.2446zm8.7217-4.8901v-.6111l1.9823-1.1002c-.1321-.6113-.2643-1.2225-.5286-1.8338h0 0l-2.2464.1221c-.1322-.2443-.2644-.4889-.5288-.7333l-.132-.1224 1.1893-1.8337-.5285-.4889c-.2644-.2446-.6608-.489-.925-.7336l-1.9824.9781c-.3964-.2445-.6606-.3669-1.0571-.4891v-.978-1.1002h0c-.6606-.2446-1.3215-.3667-1.9821-.489l-1.0572 1.8338h-.5286-.6607l-1.1893-1.8338c-.6608.1223-1.3215.2444-1.9822.489h0l.1321 2.0782c-.3965.1222-.6607.3668-1.0571.6112l-1.9822-1.1002c-.2644.2446-.6607.489-.9251.8558l-.5286.489.6607 1.1002h0l.5286.7336c-.2642.3666-.3963.6112-.5286.9779h-2.3785c-.2644.6112-.3965 1.2225-.5286 1.8337l2.1144.978v.6113.6112h0 0l-1.9823 1.1003c.1321.6112.2643 1.2225.5286 1.8337h0 0 1.1894 1.057c.1323.3667.3966.6113.6608.978l-1.1892 1.8337c.3963.3668.6607.7336 1.057.978.1322.1223.2644.1223.3964.2446l1.1894-.6113h0l.793-.489c.3964.2445.6606.3667 1.0571.489v2.2005c.6606.2445 1.3215.3668 1.9821.489l1.0572-1.8338h.6608.6606l.5287.7335L26.7298 50c.6609-.1222 1.3215-.2445 1.9823-.489h0v-1.1003-.9779c.2642-.1223.6606-.2446.925-.489h.1322l1.982 1.1002c.2644-.1222.3966-.3668.6609-.6112l.7928-.7336-1.1893-1.8337v-.1223c.1322-.2444.3965-.6111.5286-.8557h1.0572 1.1893 0 0c.2643-.6112.3964-1.2225.5286-1.8337l-2.1144-.978c-.1322-.6113-.1322-.8558-.1322-.9781zm-7.1357 5.868h0c-.3966.1223-.6608.1223-1.0572.1223-1.4536 0-2.9073-.3667-3.9644-1.2225h0c-1.5858-1.1002-2.5108-2.8117-2.5108-4.6455 0-1.3446.5286-2.6895 1.3214-3.6674 1.1894-1.4671 2.9074-2.3227 5.0216-2.3227 2.3786 0 4.3608 1.1002 5.5501 2.8117.6607.8557.9251 1.9559.9251 3.0561 0 2.934-2.2466 5.379-5.2858 5.868zm21.5398-8.3128l-1.4536-.8558-.1323-1.1002 1.3215-1.467-.7929-1.3448h-.2642l-1.8502.489-.9249-.6112-.1322-1.8338-1.5858-.489-.132.2446-.9251 1.3446-1.1893.1223-1.5857-1.2225-1.3215.7335v.2446l.3964 1.5892-.6606.8556-1.9823.1224-.5285 1.467.2642.1223 1.4537.8557.132 1.1002-1.1893 1.3448c.1322.2444.1322.489.2643.7334l.3966.7335h.2642l1.7178-.3667.925.6113.1322 1.8337 1.5858.3668.1322-.2446.925-1.3447 1.1892-.1222 1.5859 1.2225 1.3215-.7336v-.2444l-.3966-1.5894.6608-.8556 2.1143-.1223.3965-1.4669-.1321-.1223zm-4.6251-.2445c-.2644 1.1001-1.5858 1.7114-2.775 1.467s-1.8502-1.467-1.5859-2.5673 1.5859-1.8337 2.7751-1.4669 1.85 1.4669 1.5858 2.5672z"/><path d="M46.6839 32.5184l.793 1.2225c1.7177-3.3008 1.7177-5.0123 1.982-5.868 1.4537-6.357 0-13.3252-4.625-18.8265C39.9445 3.0563 32.4122 0 25.012 0 19.7261 0 14.3082 1.5893 9.8152 4.7678-1.1529 12.5917-3.2673 27.0171 5.1901 37.1639c2.5108 3.0562 5.8144 5.3789 9.5145 6.9682l-.7929-2.445 1.3216-.6112c-1.3216-.6113-2.643-1.4671-3.9645-2.3228-.1321-2.2005 0-5.5013 1.4537-9.1687 1.0571.1223 1.9821-.1223 3.0392-.489.5287.489 1.1893.978 1.718 1.3447s2.1142 1.3448 3.1714 1.956v-1.5892l3.0394-.8558-3.8322-2.3227c-.3965-.2445-.7929-.6113-1.1894-.8557 1.1894-1.8338 1.3216-4.1565.2644-6.1126l.7928-.7333c1.9822-1.7115 3.8323-3.1786 5.6824-4.2789l8.3252 6.4793c-.6609 1.4669-.6609 3.1784.5284 4.4009 1.5858 1.9561 4.4932 2.2005 6.6074.8558l.2643-.2445 4.3607 2.8117-1.0571 2.8117.3965.2446M7.1722 34.5966c-5.2857-6.9682-5.1537-16.1369-.1321-22.8606-.5285 1.9559-.6606 4.7678.925 8.0684-1.7178 2.0782-1.85 5.1345 0 7.335.1322.1223.2643.3667.5286.489-.7928 2.445-1.1893 4.89-1.3215 6.9682zm14.1397-22.7383c-1.9823 1.2225-3.9644 2.8117-6.0786 4.8899l-.7931.7335c-1.1893-.2445-2.3785-.1223-3.5679.2446-1.982-3.9121-1.8499-6.9683-1.5857-8.6799.7929-.7334 1.4536-1.3446 2.3786-1.9559 1.1893-.8557 2.3787-1.4671 3.7001-2.0782 1.5857 2.3228 3.7001 4.6455 5.9466 6.846h0zm3.0392-1.7115h0 0l-6.0786-6.1125c2.1144-.6113 4.3609-.978 6.6074-.978 5.0215 0 9.9109 1.5892 13.8754 4.6455-3.1717-.6113-8.4575-.489-14.4042 2.445zm21.6721 18.0928c-.9251-.6112-2.1143-1.4669-3.7001-2.6894.5286-1.3448.3964-2.934-.6608-4.1565-1.4536-1.7115-3.9644-2.2005-6.0787-1.1003-2.2464-1.8337-4.6251-3.9119-7.268-6.357h0c7.6645-3.7896 13.0825-3.4229 13.6111-3.4229.1321.1223.1321.2445.2642.2445 4.3609 5.2566 5.5502 11.6136 3.8323 17.4816z"/></svg>